<svg width="175" height="33" viewBox="0 0 175 33" fill="none" xmlns="http://www.w3.org/2000/svg">
<path d="M54.04 27H50.68V12.72H58.98V15.48H54.04V18.72H58.62V21.48H54.04V27ZM67.6989 15.82C67.8722 15.82 68.0656 15.8333 68.2789 15.86C68.4922 15.8733 68.6589 15.8933 68.7789 15.92L68.4989 19.08C68.3789 19.0533 68.2256 19.0333 68.0389 19.02C67.8522 18.9933 67.6456 18.98 67.4189 18.98C67.0989 18.98 66.7789 19.02 66.4589 19.1C66.1389 19.1667 65.8456 19.2933 65.5789 19.48C65.3122 19.6533 65.0989 19.9067 64.9389 20.24C64.7789 20.56 64.6989 20.98 64.6989 21.5V27H61.3189V16.02H63.8589L64.3789 17.82H64.5189C64.7322 17.4467 64.9989 17.1133 65.3189 16.82C65.6389 16.5133 65.9989 16.2733 66.3989 16.1C66.8122 15.9133 67.2456 15.82 67.6989 15.82ZM74.887 15.82C75.927 15.82 76.8204 16.0133 77.567 16.4C78.327 16.7733 78.907 17.3333 79.307 18.08C79.7204 18.8133 79.927 19.7267 79.927 20.82V22.38H72.987C73.0137 23.1 73.247 23.6733 73.687 24.1C74.127 24.5267 74.7537 24.74 75.567 24.74C76.2737 24.74 76.9137 24.6733 77.487 24.54C78.0604 24.4067 78.6537 24.1933 79.267 23.9V26.4C78.7337 26.68 78.1604 26.88 77.547 27C76.9337 27.1333 76.1804 27.2 75.287 27.2C74.1804 27.2 73.1937 27 72.327 26.6C71.4737 26.2 70.8004 25.5867 70.307 24.76C69.827 23.92 69.587 22.86 69.587 21.58C69.587 20.2733 69.807 19.2 70.247 18.36C70.687 17.5067 71.307 16.8733 72.107 16.46C72.907 16.0333 73.8337 15.82 74.887 15.82ZM74.947 18.16C74.427 18.16 73.9937 18.3267 73.647 18.66C73.3137 18.98 73.1137 19.4933 73.047 20.2H76.827C76.827 19.8133 76.7537 19.4667 76.607 19.16C76.4737 18.8533 76.267 18.6133 75.987 18.44C75.707 18.2533 75.3604 18.16 74.947 18.16ZM86.9378 15.82C87.9778 15.82 88.8711 16.0133 89.6178 16.4C90.3778 16.7733 90.9578 17.3333 91.3578 18.08C91.7711 18.8133 91.9778 19.7267 91.9778 20.82V22.38H85.0378C85.0645 23.1 85.2978 23.6733 85.7378 24.1C86.1778 24.5267 86.8045 24.74 87.6178 24.74C88.3245 24.74 88.9645 24.6733 89.5378 24.54C90.1111 24.4067 90.7045 24.1933 91.3178 23.9V26.4C90.7845 26.68 90.2111 26.88 89.5978 27C88.9845 27.1333 88.2311 27.2 87.3378 27.2C86.2311 27.2 85.2445 27 84.3778 26.6C83.5245 26.2 82.8511 25.5867 82.3578 24.76C81.8778 23.92 81.6378 22.86 81.6378 21.58C81.6378 20.2733 81.8578 19.2 82.2978 18.36C82.7378 17.5067 83.3578 16.8733 84.1578 16.46C84.9578 16.0333 85.8845 15.82 86.9378 15.82ZM86.9978 18.16C86.4778 18.16 86.0445 18.3267 85.6978 18.66C85.3645 18.98 85.1645 19.4933 85.0978 20.2H88.8778C88.8778 19.8133 88.8045 19.4667 88.6578 19.16C88.5245 18.8533 88.3178 18.6133 88.0378 18.44C87.7578 18.2533 87.4111 18.16 86.9978 18.16ZM100.349 27H96.9486V15.54H93.2486V12.72H104.049V15.54H100.349V27ZM114.762 21.48C114.762 22.4 114.635 23.2133 114.382 23.92C114.142 24.6267 113.782 25.2267 113.302 25.72C112.835 26.2133 112.268 26.5867 111.602 26.84C110.948 27.08 110.195 27.2 109.342 27.2C108.568 27.2 107.848 27.08 107.182 26.84C106.528 26.5867 105.962 26.22 105.482 25.74C105.015 25.2467 104.648 24.6467 104.382 23.94C104.115 23.22 103.982 22.4 103.982 21.48C103.982 20.2667 104.195 19.24 104.622 18.4C105.062 17.56 105.688 16.92 106.502 16.48C107.315 16.04 108.282 15.82 109.402 15.82C110.455 15.82 111.382 16.04 112.182 16.48C112.982 16.92 113.608 17.56 114.062 18.4C114.528 19.24 114.762 20.2667 114.762 21.48ZM107.402 21.48C107.402 22.16 107.468 22.7333 107.602 23.2C107.735 23.6667 107.948 24.02 108.242 24.26C108.535 24.4867 108.915 24.6 109.382 24.6C109.862 24.6 110.242 24.4867 110.522 24.26C110.802 24.02 111.008 23.6667 111.142 23.2C111.275 22.7333 111.342 22.16 111.342 21.48C111.342 20.8 111.275 20.2333 111.142 19.78C111.008 19.3267 110.795 18.9867 110.502 18.76C110.222 18.5333 109.842 18.42 109.362 18.42C108.682 18.42 108.182 18.68 107.862 19.2C107.555 19.7067 107.402 20.4667 107.402 21.48ZM122.881 18.82H128.781V26.36C128.034 26.6133 127.221 26.82 126.341 26.98C125.474 27.1267 124.527 27.2 123.501 27.2C122.101 27.2 120.894 26.9267 119.881 26.38C118.867 25.8333 118.087 25.0133 117.541 23.92C117.007 22.8267 116.741 21.4667 116.741 19.84C116.741 18.3467 117.027 17.0533 117.601 15.96C118.174 14.8667 119.014 14.02 120.121 13.42C121.241 12.82 122.607 12.52 124.221 12.52C125.034 12.52 125.821 12.6 126.581 12.76C127.354 12.92 128.034 13.1333 128.621 13.4L127.521 16.1C127.054 15.86 126.541 15.6733 125.981 15.54C125.421 15.4067 124.834 15.34 124.221 15.34C123.354 15.34 122.621 15.54 122.021 15.94C121.434 16.3267 120.994 16.8667 120.701 17.56C120.407 18.24 120.261 19.02 120.261 19.9C120.261 20.82 120.387 21.6133 120.641 22.28C120.894 22.9467 121.274 23.4667 121.781 23.84C122.301 24.2 122.961 24.38 123.761 24.38C123.987 24.38 124.207 24.3733 124.421 24.36C124.634 24.3333 124.834 24.3067 125.021 24.28C125.207 24.2533 125.374 24.2267 125.521 24.2V21.56H122.881V18.82ZM136.63 15.8C138.056 15.8 139.163 16.1333 139.95 16.8C140.736 17.4533 141.13 18.4267 141.13 19.72V27H138.79L138.13 25.52H138.05C137.743 25.9067 137.423 26.2267 137.09 26.48C136.77 26.7333 136.396 26.9133 135.97 27.02C135.556 27.14 135.043 27.2 134.43 27.2C133.79 27.2 133.21 27.0733 132.69 26.82C132.183 26.5667 131.783 26.18 131.49 25.66C131.196 25.14 131.05 24.48 131.05 23.68C131.05 22.5067 131.456 21.64 132.27 21.08C133.096 20.52 134.303 20.2067 135.89 20.14L137.77 20.08V19.76C137.77 19.2267 137.63 18.84 137.35 18.6C137.083 18.36 136.71 18.24 136.23 18.24C135.75 18.24 135.25 18.32 134.73 18.48C134.21 18.6267 133.683 18.8133 133.15 19.04L132.13 16.8C132.73 16.48 133.41 16.2333 134.17 16.06C134.93 15.8867 135.75 15.8 136.63 15.8ZM136.75 22.04C135.91 22.0667 135.323 22.22 134.99 22.5C134.656 22.7667 134.49 23.1333 134.49 23.6C134.49 24.0133 134.61 24.3133 134.85 24.5C135.09 24.6867 135.396 24.78 135.77 24.78C136.33 24.78 136.803 24.6133 137.19 24.28C137.576 23.9333 137.77 23.4667 137.77 22.88V22L136.75 22.04ZM157.115 15.82C158.368 15.82 159.315 16.14 159.955 16.78C160.608 17.4067 160.935 18.4267 160.935 19.84V27H157.575V20.78C157.575 19.98 157.448 19.4 157.195 19.04C156.955 18.6667 156.582 18.48 156.075 18.48C155.368 18.48 154.868 18.76 154.575 19.32C154.282 19.8667 154.135 20.6533 154.135 21.68V27H150.775V20.78C150.775 20.26 150.722 19.8333 150.615 19.5C150.508 19.1533 150.348 18.9 150.135 18.74C149.922 18.5667 149.642 18.48 149.295 18.48C148.802 18.48 148.408 18.62 148.115 18.9C147.835 19.1667 147.635 19.56 147.515 20.08C147.408 20.6 147.355 21.24 147.355 22V27H143.975V16.02H146.535L147.015 17.4H147.155C147.368 17.0533 147.635 16.7667 147.955 16.54C148.275 16.3 148.642 16.12 149.055 16C149.468 15.88 149.915 15.82 150.395 15.82C151.195 15.82 151.868 15.9533 152.415 16.22C152.962 16.4867 153.388 16.8733 153.695 17.38H153.895C154.242 16.86 154.702 16.4733 155.275 16.22C155.848 15.9533 156.462 15.82 157.115 15.82ZM168.52 15.82C169.56 15.82 170.453 16.0133 171.2 16.4C171.96 16.7733 172.54 17.3333 172.94 18.08C173.353 18.8133 173.56 19.7267 173.56 20.82V22.38H166.62C166.647 23.1 166.88 23.6733 167.32 24.1C167.76 24.5267 168.387 24.74 169.2 24.74C169.907 24.74 170.547 24.6733 171.12 24.54C171.693 24.4067 172.287 24.1933 172.9 23.9V26.4C172.367 26.68 171.793 26.88 171.18 27C170.567 27.1333 169.813 27.2 168.92 27.2C167.813 27.2 166.827 27 165.96 26.6C165.107 26.2 164.433 25.5867 163.94 24.76C163.46 23.92 163.22 22.86 163.22 21.58C163.22 20.2733 163.44 19.2 163.88 18.36C164.32 17.5067 164.94 16.8733 165.74 16.46C166.54 16.0333 167.467 15.82 168.52 15.82ZM168.58 18.16C168.06 18.16 167.627 18.3267 167.28 18.66C166.947 18.98 166.747 19.4933 166.68 20.2H170.46C170.46 19.8133 170.387 19.4667 170.24 19.16C170.107 18.8533 169.9 18.6133 169.62 18.44C169.34 18.2533 168.993 18.16 168.58 18.16Z" fill="black"/>
<path fill-rule="evenodd" clip-rule="evenodd" d="M18.6207 5.5V1.375C18.6207 0.616 19.2386 0 20 0C20.7614 0 21.3793 0.616 21.3793 1.375V5.5H27.5862C34.4421 5.5 40 11.0406 40 17.875C40 20.7707 40 23.7683 40 26.2226C40 28.0204 39.2834 29.744 38.009 31.0152C36.7338 32.2857 35.0041 33 33.2014 33H33.2C30.9552 33 28.8586 31.8814 27.6131 30.0197C26.8938 28.9438 26.0434 27.6719 25.3179 26.587C24.5503 25.4396 23.2586 24.75 21.8752 24.75C20.6848 24.75 19.3152 24.75 18.1248 24.75C16.7414 24.75 15.4497 25.4396 14.6821 26.587C13.9566 27.6719 13.1062 28.9438 12.3869 30.0197C11.1414 31.8814 9.04483 33 6.8 33H6.79862C4.99586 33 3.26621 32.2857 1.99103 31.0152C0.716552 29.744 0 28.0204 0 26.2226C0 23.7683 0 20.7707 0 17.875C0 11.0406 5.55793 5.5 12.4138 5.5H18.6207ZM27.5862 15.125V13.0625C27.5862 12.3035 28.2041 11.6875 28.9655 11.6875C29.7269 11.6875 30.3448 12.3035 30.3448 13.0625V15.125H32.4138C33.1752 15.125 33.7931 15.741 33.7931 16.5C33.7931 17.259 33.1752 17.875 32.4138 17.875H30.3448V19.9375C30.3448 20.6965 29.7269 21.3125 28.9655 21.3125C28.2041 21.3125 27.5862 20.6965 27.5862 19.9375V17.875H25.5172C24.7559 17.875 24.1379 17.259 24.1379 16.5C24.1379 15.741 24.7559 15.125 25.5172 15.125H27.5862ZM11.0345 11.6875C8.37035 11.6875 6.2069 13.8442 6.2069 16.5C6.2069 19.1558 8.37035 21.3125 11.0345 21.3125C13.6986 21.3125 15.8621 19.1558 15.8621 16.5C15.8621 13.8442 13.6986 11.6875 11.0345 11.6875ZM11.0345 14.4375C12.1766 14.4375 13.1034 15.3615 13.1034 16.5C13.1034 17.6385 12.1766 18.5625 11.0345 18.5625C9.89241 18.5625 8.96552 17.6385 8.96552 16.5C8.96552 15.3615 9.89241 14.4375 11.0345 14.4375Z" fill="#05C85A"/>
</svg>
