<svg width="168" height="150" viewBox="0 0 168 150" fill="none" xmlns="http://www.w3.org/2000/svg">
<path d="M15.6274 149.564H152.374C160.619 149.564 167.329 142.854 167.329 134.608V14.9555C167.329 6.70968 160.619 0 152.374 0H15.6274C7.38156 0 0.671875 6.70968 0.671875 14.9555V134.608C0.671875 142.854 7.38156 149.564 15.6274 149.564ZM15.6274 4.27332H152.374C158.265 4.27332 163.058 9.06399 163.058 14.9578V25.6422H4.94292V14.9578C4.94292 9.06399 9.73359 4.27332 15.6274 4.27332ZM4.94292 29.9132H163.056V134.608C163.056 140.5 158.263 145.293 152.371 145.293H15.6274C9.73359 145.293 4.94292 140.502 4.94292 134.608V29.9132Z" fill="#EF3D4D"/>
<path d="M19.9061 19.2302C22.2662 19.2302 24.1795 17.317 24.1795 14.9569C24.1795 12.5968 22.2662 10.6836 19.9061 10.6836C17.546 10.6836 15.6328 12.5968 15.6328 14.9569C15.6328 17.317 17.546 19.2302 19.9061 19.2302Z" fill="#EF3D4D"/>
<path d="M36.996 19.2302C39.3561 19.2302 41.2693 17.317 41.2693 14.9569C41.2693 12.5968 39.3561 10.6836 36.996 10.6836C34.6359 10.6836 32.7227 12.5968 32.7227 14.9569C32.7227 17.317 34.6359 19.2302 36.996 19.2302Z" fill="#EF3D4D"/>
<path d="M54.0897 19.2302C56.4498 19.2302 58.363 17.317 58.363 14.9569C58.363 12.5968 56.4498 10.6836 54.0897 10.6836C51.7296 10.6836 49.8164 12.5968 49.8164 14.9569C49.8164 17.317 51.7296 19.2302 54.0897 19.2302Z" fill="#EF3D4D"/>
<path d="M101.098 111.105H66.9112C65.7284 111.105 64.7734 112.06 64.7734 113.243C64.7734 114.426 65.7284 115.381 66.9112 115.381H86.1423V121.79C86.1423 126.501 89.9735 130.337 94.6889 130.337C99.4021 130.337 103.236 126.501 103.236 121.79V113.243C103.236 112.06 102.278 111.105 101.098 111.105ZM94.6889 126.063C92.3346 126.063 90.4156 124.149 90.4156 121.79V115.381H98.9623V121.79C98.96 124.147 97.041 126.063 94.6889 126.063Z" fill="#EF3D4D"/>
<path d="M56.8522 101.935C57.2715 102.353 57.8162 102.56 58.3632 102.56C58.9102 102.56 59.4549 102.353 59.8743 101.935L62.6365 99.1732L65.3988 101.935C65.8182 102.353 66.3629 102.56 66.9099 102.56C67.4568 102.56 68.0015 102.353 68.4209 101.935C69.255 101.101 69.255 99.7498 68.4209 98.9133L65.6564 96.1511L68.4209 93.3888C69.255 92.5546 69.255 91.2031 68.4209 90.3667C67.5867 89.5303 66.233 89.5326 65.3988 90.3667L62.6365 93.129L59.8743 90.3667C59.0401 89.5326 57.6863 89.5326 56.8522 90.3667C56.018 91.2009 56.018 92.5524 56.8522 93.3888L59.6144 96.1511L56.8522 98.9133C56.018 99.7475 56.018 101.099 56.8522 101.935Z" fill="#EF3D4D"/>
<path d="M99.5866 101.935C100.004 102.352 100.551 102.559 101.098 102.559C101.642 102.559 102.189 102.352 102.606 101.935L105.371 99.1723L108.133 101.935C108.55 102.352 109.097 102.559 109.644 102.559C110.189 102.559 110.736 102.352 111.153 101.935C111.989 101.1 111.989 99.7489 111.153 98.9125L108.391 96.1502L111.153 93.3879C111.989 92.5538 111.989 91.2023 111.153 90.3658C110.321 89.5317 108.967 89.5317 108.133 90.3658L105.371 93.1281L102.606 90.3658C101.774 89.5317 100.421 89.5317 99.5866 90.3658C98.7524 91.2 98.7524 92.5515 99.5866 93.3879L102.349 96.1502L99.5866 98.9125C98.7524 99.7466 98.7524 101.098 99.5866 101.935Z" fill="#EF3D4D"/>
</svg>
